<svg version="1.1" class="highcharts-root"
     style="font-family: &quot;Lucida Grande&quot;, &quot;Lucida Sans Unicode&quot;, Arial, Helvetica, sans-serif; font-size: 12px;"
     xmlns="http://www.w3.org/2000/svg" width="1296" height="720" viewBox="0 0 1296 720">
    <desc>Created with Highcharts 10.1.0</desc>
    <defs>
        <clipPath id="highcharts-msl71rq-22-">
            <rect x="0" y="0" width="1276" height="695" fill="none"></rect>
        </clipPath>
        <clipPath id="highcharts-msl71rq-23-">
            <rect x="0" y="0" width="1276" height="695" fill="none"></rect>
        </clipPath>
    </defs>
    <rect fill="none" class="highcharts-background" x="0" y="0" width="1296" height="720" rx="0" ry="0"></rect>
    <rect fill="none" class="highcharts-plot-background" x="10" y="10" width="1276" height="695"></rect>
    <rect fill="none" class="highcharts-plot-border" data-z-index="1" x="10" y="10" width="1276" height="695"></rect>
    <g class="highcharts-series-group" data-z-index="3">
        <g class="highcharts-series highcharts-series-0 highcharts-map-series highcharts-color-0 highcharts-tracker"
           data-z-index="0.1" opacity="1" transform="translate(10,10) scale(1 1)"
           clip-path="url(#highcharts-msl71rq-23-)">
            <g transform="translate(117.48608294930887,1209.1822119815668) scale(0.11760368663594468 -0.11760368663594468)"
               stroke-width="8.503134796238246">
                <path fill="#f7f7f7"
                      d="M 2704 6546 L 2707 6522 L 2616 6552 L 2655 6560 L 2704 6546 L 2704 6546 M 2335 6477 L 2335 6477 L 2335 6477 L 2335 6477 L 2335 6477 M 2336 6447 L 2353 6487 L 2434 6399 L 2430 6364 L 2449 6304 L 2445 6265 L 2342 6326 L 2336 6447 L 2336 6447 M 4190 5370 L 4201 5391 L 4213 5567 L 4132 5531 L 4058 5666 L 3993 5705 L 3909 5795 L 3882 5800 L 3769 5747 L 3445 5773 L 3131 5725 L 3120 5729 L 2901 5948 L 2868 6018 L 2608 6169 L 2615 6339 L 2598 6408 L 2535 6408 L 2524 6448 L 2583 6522 L 2703 6496 L 2806 6591 L 2912 6625 L 2931 6699 L 2840 6709 L 2799 6745 L 2808 6798 L 2742 6811 L 2798 6770 L 2768 6744 L 2719 6756 L 2703 6714 L 2680 6779 L 2652 6780 L 2592 6735 L 2596 6696 L 2628 6673 L 2686 6690 L 2744 6653 L 2779 6685 L 2811 6632 L 2804 6598 L 2761 6571 L 2600 6592 L 2543 6570 L 2538 6645 L 2465 6655 L 2521 6574 L 2493 6489 L 2440 6446 L 2388 6465 L 2403 6554 L 2347 6534 L 2357 6570 L 2505 6741 L 2572 6801 L 2638 6843 L 2702 6856 L 2736 6919 L 2796 6915 L 2863 7003 L 2887 7059 L 2945 7128 L 3011 7142 L 3086 7143 L 3137 7073 L 3209 7031 L 3243 6965 L 3348 6943 L 3297 6898 L 3376 6908 L 3445 6869 L 3549 6837 L 3607 6831 L 3924 6720 L 3947 6718 L 4012 6668 L 4068 6645 L 4447 6567 L 4518 6568 L 4525 6535 L 4529 6503 L 4568 6449 L 4548 6419 L 4530 6302 L 4610 6243 L 4613 5994 L 4682 5963 L 4709 5926 L 4772 5884 L 4772 5863 L 4730 5844 L 4729 5785 L 4701 5798 L 4674 5706 L 4651 5687 L 4682 5674 L 4698 5622 L 4568 5566 L 4439 5490 L 4382 5445 L 4318 5435 L 4235 5363 L 4190 5370 L 4190 5370 Z"
                      stroke="#cccccc" stroke-width="inherit" opacity="1"
                      class="highcharts-point highcharts-null-point highcharts-color-0 highcharts-name-кызылординская highcharts-key-kz-qo"></path>
                <path fill="#f7f7f7"
                      d="M 3030 8344 L 2984 8401 L 2864 8422 L 2842 8467 L 2729 8469 L 2687 8488 L 2720 8528 L 2629 8565 L 2603 8559 L 2594 8602 L 2647 8602 L 2727 8658 L 2771 8655 L 2869 8723 L 2844 8775 L 2814 8787 L 2806 8828 L 2772 8841 L 2874 8933 L 2852 8951 L 2909 8966 L 2985 8966 L 3019 8943 L 3076 8954 L 3103 8939 L 3149 8959 L 3137 9006 L 3061 9022 L 3029 9049 L 2985 9039 L 2912 9061 L 2895 9096 L 2916 9139 L 2968 9119 L 3006 9144 L 2992 9174 L 2942 9158 L 2896 9165 L 2860 9191 L 2912 9258 L 2852 9281 L 2863 9305 L 2914 9290 L 2910 9330 L 2969 9344 L 3018 9305 L 3076 9321 L 3125 9299 L 3125 9330 L 3234 9333 L 3228 9302 L 3256 9279 L 3270 9333 L 3340 9358 L 3412 9355 L 3422 9387 L 3478 9383 L 3578 9415 L 3617 9397 L 3657 9407 L 3650 9434 L 3809 9464 L 3847 9445 L 3897 9470 L 3944 9436 L 3977 9449 L 3978 9516 L 4034 9525 L 4040 9553 L 4110 9542 L 4169 9580 L 4181 9547 L 4212 9556 L 4247 9432 L 4216 9420 L 4285 9361 L 4192 9321 L 4212 9255 L 4248 9230 L 4218 9171 L 4229 9140 L 4263 9134 L 4273 9054 L 4312 9011 L 4230 8990 L 4215 8965 L 4235 8926 L 4211 8864 L 4201 8747 L 4196 8668 L 4175 8647 L 4149 8567 L 4109 8530 L 4039 8517 L 4035 8496 L 4092 8447 L 4078 8383 L 4055 8343 L 4062 8310 L 4109 8242 L 4112 8179 L 4147 8182 L 4202 8215 L 4243 8171 L 4270 8172 L 4313 8134 L 4408 8107 L 4485 8118 L 4514 8099 L 4502 8053 L 4541 8018 L 4611 8047 L 4680 8055 L 4743 8079 L 4790 8046 L 4747 7995 L 4653 7969 L 4655 7913 L 4592 7845 L 4364 7672 L 4229 7559 L 4176 7553 L 4116 7511 L 4060 7501 L 3940 7516 L 3852 7504 L 3821 7441 L 3790 7440 L 3801 7389 L 3713 7355 L 3711 7320 L 3647 7269 L 3565 7378 L 3397 7453 L 3398 7512 L 3300 7517 L 3243 7576 L 3223 7616 L 3253 7637 L 3202 7711 L 3209 7739 L 3244 7737 L 3234 7765 L 3286 7853 L 3314 7871 L 3366 7867 L 3360 7911 L 3308 7980 L 3266 8055 L 3242 8138 L 3205 8165 L 3224 8199 L 3187 8232 L 3202 8265 L 3165 8290 L 3132 8274 L 3090 8355 L 3030 8344 L 3030 8344 Z"
                      stroke="#cccccc" stroke-width="inherit" opacity="1"
                      class="highcharts-point highcharts-null-point highcharts-color-0 highcharts-name-костанайская highcharts-key-kz-qs"></path>
                <path fill="#f7f7f7"
                      d="M 4201 8747 L 4211 8864 L 4235 8926 L 4215 8965 L 4230 8990 L 4312 9011 L 4273 9054 L 4263 9134 L 4229 9140 L 4218 9171 L 4248 9230 L 4212 9255 L 4192 9321 L 4285 9361 L 4216 9420 L 4247 9432 L 4212 9556 L 4305 9584 L 4509 9615 L 4528 9636 L 4618 9636 L 4669 9672 L 4762 9674 L 4800 9717 L 4768 9736 L 4787 9762 L 4879 9762 L 4904 9824 L 4963 9792 L 4968 9851 L 5016 9837 L 5033 9811 L 5072 9833 L 5162 9814 L 5226 9768 L 5301 9739 L 5348 9764 L 5366 9795 L 5467 9799 L 5460 9776 L 5509 9719 L 5500 9649 L 5516 9607 L 5563 9590 L 5582 9552 L 5554 9540 L 5565 9439 L 5509 9442 L 5526 9391 L 5563 9360 L 5600 9397 L 5641 9363 L 5703 9372 L 5717 9414 L 5769 9409 L 5801 9377 L 5808 9437 L 5839 9445 L 5860 9388 L 5909 9373 L 5877 9345 L 5879 9300 L 5901 9289 L 5955 9339 L 5916 9339 L 5946 9373 L 6035 9366 L 6063 9316 L 6142 9301 L 6184 9307 L 6202 9347 L 6243 9344 L 6231 9287 L 6175 9278 L 6107 9201 L 6107 9168 L 6166 9123 L 6199 9067 L 6166 9055 L 6175 9008 L 6220 9041 L 6250 9031 L 6190 8940 L 6228 8945 L 6217 8900 L 6250 8894 L 6269 8924 L 6320 8909 L 6287 8832 L 6242 8861 L 6249 8831 L 6303 8806 L 6221 8812 L 6173 8842 L 6036 8876 L 6018 8960 L 5995 8968 L 5898 8959 L 5844 8928 L 5760 8930 L 5709 8966 L 5734 9032 L 5676 9098 L 5598 9066 L 5541 9080 L 5531 9110 L 5428 9104 L 5391 9048 L 5330 9093 L 5279 9092 L 5292 9140 L 5241 9137 L 5230 9190 L 5160 9208 L 5090 9169 L 5044 9203 L 5016 9184 L 4947 9187 L 4957 9162 L 4873 9106 L 4936 9049 L 4963 9002 L 4934 8948 L 4945 8889 L 4871 8853 L 4840 8810 L 4774 8788 L 4778 8749 L 4725 8698 L 4638 8737 L 4576 8740 L 4572 8688 L 4491 8678 L 4370 8693 L 4357 8718 L 4269 8710 L 4249 8735 L 4201 8747 L 4201 8747 Z"
                      stroke="#cccccc" stroke-width="inherit" opacity="1"
                      class="highcharts-point highcharts-null-point highcharts-color-0 highcharts-name-северо-казахстанская highcharts-key-kz-nk"></path>
                <path fill="#f7f7f7"
                      d="M 6303 8806 L 6249 8831 L 6242 8861 L 6287 8832 L 6320 8909 L 6269 8924 L 6250 8894 L 6217 8900 L 6228 8945 L 6190 8940 L 6250 9031 L 6220 9041 L 6175 9008 L 6166 9055 L 6199 9067 L 6166 9123 L 6216 9165 L 6295 9192 L 6328 9168 L 6368 9177 L 6420 9134 L 6432 9209 L 6475 9207 L 6517 9262 L 6585 9253 L 6693 9318 L 6673 9345 L 6747 9359 L 6892 9415 L 6905 9450 L 6958 9439 L 7013 9457 L 7016 9478 L 7069 9492 L 7046 9456 L 7065 9432 L 7019 9372 L 6942 9377 L 6983 9309 L 7271 9121 L 7339 9060 L 7501 8832 L 7721 8493 L 7636 8405 L 7591 8405 L 7576 8356 L 7505 8324 L 7482 8330 L 7403 8283 L 7446 8217 L 7557 8147 L 7565 8064 L 7592 8025 L 7552 7957 L 7500 7912 L 7417 7931 L 7303 7973 L 7287 7983 L 7274 8063 L 7103 8124 L 7046 8073 L 7030 7996 L 6940 7996 L 6922 7969 L 6890 7981 L 6751 7955 L 6677 7955 L 6588 7904 L 6548 7934 L 6620 7982 L 6564 8052 L 6526 8076 L 6502 8058 L 6487 8103 L 6431 8125 L 6333 8104 L 6305 8127 L 6337 8264 L 6321 8314 L 6236 8341 L 6272 8396 L 6384 8440 L 6319 8475 L 6268 8471 L 6285 8543 L 6326 8571 L 6319 8771 L 6303 8806 L 6303 8806 Z"
                      stroke="#cccccc" stroke-width="inherit" opacity="1"
                      class="highcharts-point highcharts-null-point highcharts-color-0 highcharts-name-павлодарская highcharts-key-kz-pa"></path>
                <path fill="#f7f7f7"
                      d="M 4743 8079 L 4680 8055 L 4611 8047 L 4541 8018 L 4502 8053 L 4514 8099 L 4485 8118 L 4408 8107 L 4313 8134 L 4270 8172 L 4243 8171 L 4202 8215 L 4147 8182 L 4112 8179 L 4109 8242 L 4062 8310 L 4055 8343 L 4078 8383 L 4092 8447 L 4035 8496 L 4039 8517 L 4109 8530 L 4149 8567 L 4175 8647 L 4196 8668 L 4201 8747 L 4249 8735 L 4269 8710 L 4357 8718 L 4370 8693 L 4491 8678 L 4572 8688 L 4576 8740 L 4638 8737 L 4725 8698 L 4778 8749 L 4774 8788 L 4840 8810 L 4871 8853 L 4945 8889 L 4934 8948 L 4963 9002 L 4936 9049 L 4873 9106 L 4957 9162 L 4947 9187 L 5016 9184 L 5044 9203 L 5090 9169 L 5160 9208 L 5230 9190 L 5241 9137 L 5292 9140 L 5279 9092 L 5330 9093 L 5391 9048 L 5428 9104 L 5531 9110 L 5541 9080 L 5598 9066 L 5676 9098 L 5734 9032 L 5709 8966 L 5760 8930 L 5844 8928 L 5898 8959 L 5995 8968 L 6018 8960 L 6036 8876 L 6173 8842 L 6221 8812 L 6303 8806 L 6319 8771 L 6326 8571 L 6285 8543 L 6268 8471 L 6319 8475 L 6384 8440 L 6272 8396 L 6236 8341 L 6186 8347 L 6117 8330 L 6142 8282 L 6171 8301 L 6208 8286 L 6167 8253 L 6105 8234 L 6065 8197 L 6020 8205 L 5987 8158 L 5925 8138 L 5928 8099 L 5858 8084 L 5854 8047 L 5783 8053 L 5742 8041 L 5765 8129 L 5684 8168 L 5626 8111 L 5502 8047 L 5486 7978 L 5464 7996 L 5428 7984 L 5412 7928 L 5326 7898 L 5336 7954 L 5315 7980 L 5230 7965 L 5183 7968 L 5158 8012 L 5116 8018 L 5071 7959 L 5025 7943 L 4936 7968 L 4980 8108 L 4982 8146 L 4924 8165 L 4820 8117 L 4726 8116 L 4743 8079 L 4743 8079 M 5655 8249 L 5676 8308 L 5628 8357 L 5598 8353 L 5581 8306 L 5639 8243 L 5655 8249 L 5655 8249 Z"
                      stroke="#cccccc" stroke-width="inherit" opacity="1"
                      class="highcharts-point highcharts-null-point highcharts-color-0 highcharts-name-акмолинская highcharts-key-kz-am"></path>
                <path fill="#f7f7f7"
                      d="M 6792 5550 L 6749 5508 L 6625 5522 L 6541 5563 L 6501 5570 L 6460 5607 L 6359 5655 L 6364 5633 L 6302 5640 L 6286 5612 L 6214 5590 L 6177 5537 L 6180 5504 L 6155 5439 L 6180 5385 L 6133 5387 L 6130 5408 L 6077 5426 L 6004 5428 L 5973 5459 L 5907 5469 L 5858 5494 L 5808 5490 L 5740 5517 L 5670 5493 L 5622 5505 L 5554 5467 L 5548 5439 L 5516 5430 L 5485 5359 L 5365 5466 L 5320 5493 L 5317 5565 L 5277 5621 L 5163 5655 L 5124 5703 L 5154 5742 L 5218 5913 L 5225 5949 L 5197 6109 L 5121 6347 L 5062 6480 L 5029 6528 L 6361 6534 L 6327 6475 L 6320 6395 L 6337 6308 L 6271 6304 L 6262 6276 L 6285 6245 L 6337 6239 L 6353 6189 L 6455 6106 L 6474 6027 L 6513 5995 L 6572 5988 L 6617 5965 L 6664 5919 L 6650 5853 L 6582 5752 L 6691 5721 L 6656 5666 L 6674 5621 L 6750 5576 L 6732 5564 L 6792 5550 L 6792 5550 Z"
                      stroke="#cccccc" stroke-width="inherit" opacity="1"
                      class="highcharts-point highcharts-null-point highcharts-color-0 highcharts-name-жамбылская highcharts-key-kz-zm"></path>
                <path fill="#f7f7f7"
                      d="M 8293 8157 L 8374 8176 L 8490 8150 L 8563 8151 L 8622 8185 L 8640 8219 L 8696 8210 L 8731 8249 L 8818 8249 L 8920 8205 L 8962 8142 L 8995 8121 L 9021 8074 L 9034 7993 L 9227 7929 L 9222 7871 L 9242 7863 L 9304 7758 L 9392 7771 L 9481 7728 L 9529 7737 L 9546 7718 L 9572 7759 L 9603 7773 L 9661 7832 L 9698 7828 L 9705 7797 L 9657 7760 L 9718 7733 L 9720 7707 L 9772 7644 L 9823 7637 L 9851 7588 L 9796 7603 L 9735 7595 L 9693 7555 L 9709 7504 L 9697 7457 L 9649 7397 L 9588 7385 L 9550 7360 L 9442 7356 L 9389 7266 L 9371 7191 L 9392 7091 L 9388 7057 L 9412 7010 L 9409 6951 L 9382 6941 L 9366 6899 L 9288 6893 L 9211 6832 L 9172 6821 L 9144 6876 L 9010 6879 L 8943 6873 L 8842 6904 L 8742 6952 L 8707 6949 L 8657 7024 L 8657 7030 L 8627 7105 L 8617 7142 L 8617 7179 L 8565 7324 L 8565 7361 L 8560 7398 L 8565 7435 L 8575 7510 L 8575 7548 L 8570 7585 L 8570 7622 L 8565 7660 L 8565 7697 L 8565 7734 L 8513 7744 L 8450 7744 L 8400 7763 L 8338 7801 L 8317 7839 L 8296 7877 L 8279 7914 L 8262 7947 L 8245 7980 L 8228 8013 L 8211 8046 L 8194 8079 L 8194 8117 L 8293 8157 Z"
                      stroke="#cccccc" stroke-width="inherit" opacity="1"
                      class="highcharts-point highcharts-null-point highcharts-color-0 highcharts-name-восточно-казахстанская highcharts-key-kz-ek"></path>
                <path fill="#f7f7f7"
                      d="M 8657 7024 L 8657 7030 L 8627 7105 L 8617 7142 L 8617 7179 L 8565 7324 L 8565 7361 L 8560 7398 L 8565 7435 L 8575 7510 L 8575 7548 L 8570 7585 L 8570 7622 L 8565 7660 L 8565 7697 L 8565 7734 L 8513 7744 L 8450 7744 L 8400 7763 L 8338 7801 L 8317 7839 L 8296 7877 L 8279 7914 L 8262 7947 L 8245 7980 L 8228 8013 L 8211 8046 L 8194 8079 L 8194 8117 L 8293 8157 L 8374 8176 L 8293 8157 L 8278 8237 L 8187 8233 L 8210 8299 L 8087 8358 L 8065 8325 L 8015 8311 L 8022 8237 L 7903 8177 L 7765 8425 L 7721 8493 L 7636 8405 L 7591 8405 L 7576 8356 L 7505 8324 L 7482 8330 L 7403 8283 L 7446 8217 L 7557 8147 L 7565 8064 L 7592 8025 L 7552 7957 L 7500 7912 L 7417 7931 L 7303 7973 L 7228 7898 L 7158 7860 L 7154 7780 L 7047 7727 L 7010 7679 L 7121 7577 L 7078 7553 L 7101 7492 L 7205 7496 L 7201 7426 L 7142 7384 L 7114 7383 L 7089 7348 L 7123 7313 L 7174 7303 L 7154 7268 L 7217 7242 L 7181 7225 L 7152 7171 L 7128 7092 L 7151 7025 L 7104 7014 L 7076 6964 L 7124 6924 L 7179 6911 L 7193 6936 L 7263 6940 L 7335 6942 L 7386 6969 L 7403 6953 L 7447 6984 L 7570 6927 L 7588 6905 L 7722 6892 L 7770 6835 L 7910 6841 L 7976 6820 L 7998 6793 L 8113 6745 L 8215 6728 L 8332 6678 L 8343 6652 L 8414 6570 L 8474 6446 L 8470 6412 L 8516 6401 L 8567 6516 L 8588 6614 L 8616 6658 L 8660 6792 L 8699 6862 L 8706 6947 L 8657 7024 Z"
                      stroke="#cccccc" stroke-width="inherit" opacity="1"
                      class="highcharts-point highcharts-null-point highcharts-color-0 highcharts-name-абай highcharts-key-kz-ab"></path>
                <path fill="#f7f7f7"
                      d="M 696 6472 L 756 6555 L 775 6639 L 752 6730 L 783 6787 L 761 6794 L 747 6848 L 712 6867 L 631 6865 L 589 6882 L 562 6846 L 521 6843 L 531 6817 L 468 6845 L 405 6853 L 335 6902 L 258 6922 L 164 6895 L 100 6860 L 97 6837 L 47 6842 L 3 6795 L -19 6798 L -55 6760 L -112 6728 L -164 6742 L -163 6721 L -246 6735 L -225 6707 L -280 6686 L -269 6657 L -408 6731 L -452 6737 L -474 6768 L -447 6802 L -392 6776 L -328 6804 L -410 6915 L -456 7019 L -499 7047 L -549 7121 L -583 7140 L -688 7139 L -745 7162 L -765 7111 L -829 7157 L -819 7177 L -849 7213 L -810 7242 L -833 7252 L -831 7300 L -354 7239 L -215 7197 L -208 7223 L -87 7232 L 129 7361 L 188 7382 L 243 7432 L 300 7443 L 422 7427 L 417 7389 L 504 7371 L 514 7382 L 607 7356 L 633 7418 L 672 7471 L 670 7511 L 710 7554 L 819 7550 L 912 7622 L 974 7579 L 993 7602 L 1013 7560 L 1018 7462 L 1116 7442 L 1152 7495 L 1211 7470 L 1224 7432 L 1210 7363 L 1231 7249 L 1257 7222 L 1284 7099 L 1264 6933 L 1342 6812 L 1396 6768 L 1602 6700 L 1656 6577 L 1565 6593 L 1541 6617 L 1485 6627 L 1484 6659 L 1444 6667 L 1391 6708 L 1330 6663 L 1239 6659 L 985 6611 L 918 6539 L 934 6523 L 876 6491 L 744 6462 L 696 6472 L 696 6472 Z"
                      stroke="#cccccc" stroke-width="inherit" opacity="1"
                      class="highcharts-point highcharts-null-point highcharts-color-0 highcharts-name-атырауская highcharts-key-kz-ar"></path>
                <path fill="#f7f7f7"
                      d="M 696 6472 L 744 6462 L 876 6491 L 934 6523 L 918 6539 L 985 6611 L 1239 6659 L 1330 6663 L 1391 6708 L 1444 6667 L 1484 6659 L 1485 6627 L 1541 6617 L 1565 6593 L 1656 6577 L 1674 6533 L 1718 6272 L 1524 6217 L 1524 5036 L 1433 5018 L 1379 5026 L 1325 5083 L 1251 5186 L 1240 5229 L 1195 5266 L 1051 5352 L 1011 5361 L 843 5333 L 728 5291 L 584 5171 L 596 5232 L 574 5280 L 627 5361 L 656 5437 L 657 5484 L 593 5515 L 540 5506 L 512 5534 L 450 5517 L 429 5536 L 375 5632 L 275 5620 L 287 5713 L 274 5750 L 240 5775 L 197 5867 L 163 5906 L 161 5955 L 121 5979 L 28 5994 L -3 6020 L -1 6084 L 16 6106 L 68 6097 L 174 6095 L 240 6051 L 281 6073 L 345 6059 L 312 6092 L 287 6087 L 255 6134 L 194 6169 L 191 6212 L 254 6241 L 307 6328 L 412 6352 L 456 6341 L 605 6353 L 627 6393 L 654 6352 L 618 6351 L 709 6322 L 762 6318 L 804 6334 L 664 6392 L 666 6429 L 696 6472 L 696 6472 Z"
                      stroke="#cccccc" stroke-width="inherit" opacity="1"
                      class="highcharts-point highcharts-null-point highcharts-color-0 highcharts-name-мангистауская highcharts-key-kz-mg"></path>
                <path fill="#f7f7f7"
                      d="M 6792 5550 L 6732 5564 L 6750 5576 L 6674 5621 L 6656 5666 L 6691 5721 L 6582 5752 L 6650 5853 L 6664 5919 L 6617 5965 L 6572 5988 L 6513 5995 L 6474 6027 L 6455 6106 L 6353 6189 L 6337 6239 L 6285 6245 L 6262 6276 L 6271 6304 L 6337 6308 L 6320 6395 L 6327 6475 L 6361 6534 L 6514 6681 L 6684 6774 L 6815 6778 L 6830 6550 L 6840 6550 L 6840 6450 L 6850 6450 L 6870 6350 L 6870 6330 L 6890 6270 L 6920 6250 L 6940 6180 L 6950 6140 L 6960 6130 L 6980 6040 L 7110 6030 L 7110 6000 L 7200 5950 L 7250 5950 L 7280 5980 L 7330 5980 L 7380 6030 L 7440 6030 L 7955 5950 L 7997 5927 L 8032 5864 L 8095 5718 L 8076 5675 L 8101 5663 L 8115 5612 L 8058 5609 L 8003 5580 L 8053 5538 L 7966 5503 L 7943 5450 L 7977 5327 L 7961 5311 L 7884 5386 L 7753 5400 L 7704 5452 L 7679 5503 L 7648 5492 L 7557 5508 L 7506 5530 L 7382 5524 L 7350 5535 L 7216 5545 L 6792 5550 M 7109 5642 L 7007 5635 L 6998 5678 L 7083 5708 L 7117 5712 L 7109 5642 L 7109 5642 Z"
                      stroke="#cccccc" stroke-width="inherit" opacity="1"
                      class="highcharts-point highcharts-null-point highcharts-color-0 highcharts-name-алматинская highcharts-key-kz-aa"></path>
                <path fill="#f7f7f7"
                      d="M 6815 6778 L 6951 6769 L 6981 6752 L 7035 6776 L 7114 6764 L 7151 6730 L 7190 6754 L 7268 6773 L 7263 6940 L 7335 6942 L 7386 6969 L 7403 6953 L 7447 6984 L 7570 6927 L 7588 6905 L 7722 6892 L 7770 6835 L 7910 6841 L 7976 6820 L 7998 6793 L 8113 6745 L 8215 6728 L 8332 6678 L 8343 6652 L 8414 6570 L 8474 6446 L 8470 6412 L 8516 6401 L 8533 6377 L 8600 6362 L 8592 6277 L 8563 6257 L 8515 6294 L 8424 6267 L 8386 6281 L 8368 6330 L 8132 6261 L 8091 6266 L 8013 6238 L 7922 6225 L 7868 6188 L 7903 6152 L 7963 6160 L 8032 6133 L 8000 6106 L 7994 6029 L 8005 5981 L 7997 5927 L 7955 5950 L 7440 6030 L 7380 6030 L 7330 5980 L 7280 5980 L 7250 5950 L 7250 5950 L 7250 5950 L 7200 5950 L 7110 6000 L 6980 6040 L 6960 6130 L 6950 6140 L 6940 6180 L 6920 6250 L 6890 6270 L 6870 6330 L 6870 6350 L 6870 6350 L 6850 6450 L 6840 6450 L 6840 6550 L 6830 6550 L 6815 6778 Z"
                      stroke="#cccccc" stroke-width="inherit" opacity="1"
                      class="highcharts-point highcharts-null-point highcharts-color-0 highcharts-name-жетісу highcharts-key-kz-ja"></path>
                <path fill="#f7f7f7"
                      d="M 2335 6477 L 2335 6477 L 2332 6460 L 2336 6447 L 2342 6326 L 2259 6374 L 2315 6427 L 2335 6477 L 2335 6477 M 1144 8087 L 1178 8112 L 1168 8211 L 1132 8226 L 1168 8261 L 1236 8221 L 1277 8211 L 1287 8180 L 1346 8134 L 1395 8128 L 1440 8087 L 1551 8155 L 1577 8219 L 1619 8215 L 1665 8275 L 1713 8241 L 1715 8274 L 1760 8270 L 1840 8284 L 1889 8211 L 1979 8215 L 2000 8293 L 2099 8271 L 2143 8304 L 2167 8274 L 2219 8260 L 2213 8204 L 2307 8139 L 2443 8122 L 2466 8068 L 2533 8088 L 2598 8200 L 2629 8197 L 2672 8141 L 2784 8130 L 2957 8175 L 2976 8208 L 2995 8307 L 3030 8344 L 3090 8355 L 3132 8274 L 3165 8290 L 3202 8265 L 3187 8232 L 3224 8199 L 3205 8165 L 3242 8138 L 3266 8055 L 3308 7980 L 3360 7911 L 3366 7867 L 3314 7871 L 3286 7853 L 3234 7765 L 3244 7737 L 3209 7739 L 3202 7711 L 3253 7637 L 3223 7616 L 3243 7576 L 3300 7517 L 3398 7512 L 3397 7453 L 3565 7378 L 3647 7269 L 3709 7177 L 3683 7152 L 3348 6943 L 3243 6965 L 3209 7031 L 3137 7073 L 3086 7143 L 3011 7142 L 2945 7128 L 2887 7059 L 2863 7003 L 2796 6915 L 2736 6919 L 2702 6856 L 2638 6843 L 2572 6801 L 2505 6741 L 2357 6570 L 2347 6534 L 2318 6543 L 2259 6510 L 2229 6417 L 2203 6403 L 1923 6330 L 1718 6272 L 1674 6533 L 1656 6577 L 1602 6700 L 1396 6768 L 1342 6812 L 1264 6933 L 1284 7099 L 1257 7222 L 1231 7249 L 1210 7363 L 1224 7432 L 1211 7470 L 1152 7495 L 1116 7442 L 1018 7462 L 1013 7560 L 993 7602 L 974 7579 L 912 7622 L 936 7720 L 1000 7771 L 1046 7769 L 1119 7839 L 1145 7914 L 1111 7955 L 1103 8027 L 1144 8087 L 1144 8087 Z"
                      stroke="#cccccc" stroke-width="inherit" opacity="1"
                      class="highcharts-point highcharts-null-point highcharts-color-0 highcharts-name-актюбинская highcharts-key-kz-at"></path>
                <path fill="#f7f7f7"
                      d="M 912 7622 L 819 7550 L 710 7554 L 670 7511 L 672 7471 L 633 7418 L 607 7356 L 514 7382 L 504 7371 L 417 7389 L 422 7427 L 300 7443 L 243 7432 L 188 7382 L 129 7361 L -87 7232 L -208 7223 L -215 7197 L -354 7239 L -831 7300 L -840 7312 L -999 7357 L -926 7529 L -855 7592 L -853 7628 L -920 7673 L -887 7841 L -872 7863 L -814 7885 L -779 7918 L -782 7998 L -713 8060 L -695 8056 L -597 7966 L -531 7856 L -484 7838 L -387 7880 L -360 7910 L -409 8019 L -416 8104 L -433 8128 L -374 8110 L -291 8175 L -221 8198 L -237 8239 L -217 8287 L -122 8287 L -67 8332 L 29 8365 L 32 8397 L 74 8413 L 91 8475 L 146 8462 L 140 8519 L 182 8491 L 264 8493 L 301 8473 L 266 8443 L 283 8417 L 351 8439 L 374 8410 L 410 8425 L 405 8460 L 433 8488 L 492 8483 L 556 8520 L 602 8420 L 648 8413 L 675 8430 L 718 8411 L 743 8424 L 825 8428 L 897 8382 L 912 8329 L 982 8317 L 1028 8285 L 1046 8240 L 1126 8200 L 1100 8118 L 1144 8087 L 1103 8027 L 1111 7955 L 1145 7914 L 1119 7839 L 1046 7769 L 1000 7771 L 936 7720 L 912 7622 L 912 7622 Z"
                      stroke="#cccccc" stroke-width="inherit" opacity="1"
                      class="highcharts-point highcharts-null-point highcharts-color-0 highcharts-name-западно-казахстанская highcharts-key-kz-wk"></path>
                <path fill="#f7f7f7"
                      d="M 5029 6528 L 5062 6480 L 5121 6347 L 5197 6109 L 5225 5949 L 5218 5913 L 5154 5742 L 5124 5703 L 5163 5655 L 5277 5621 L 5317 5565 L 5320 5493 L 5365 5466 L 5485 5359 L 5501 5330 L 5444 5314 L 5411 5259 L 5370 5281 L 5333 5262 L 5285 5202 L 5226 5160 L 5149 5145 L 5088 5106 L 5087 5082 L 5041 5079 L 4992 5050 L 4994 5004 L 4916 4954 L 4869 4907 L 4875 4808 L 4840 4803 L 4715 4875 L 4739 4894 L 4749 4955 L 4727 4948 L 4701 4997 L 4403 4979 L 4369 4997 L 4330 5168 L 4320 5249 L 4191 5250 L 4190 5370 L 4235 5363 L 4318 5435 L 4382 5445 L 4439 5490 L 4568 5566 L 4698 5622 L 4682 5674 L 4651 5687 L 4674 5706 L 4701 5798 L 4729 5785 L 4730 5844 L 4772 5863 L 4772 5884 L 4709 5926 L 4682 5963 L 4613 5994 L 4610 6243 L 4530 6302 L 4548 6419 L 4568 6449 L 4529 6503 L 4525 6535 L 5029 6528 L 5029 6528 M 5080.6521316401595 5439.710274792489 L 5049.252904322561 5387.150698630422 L 5101.8124804846275 5350.290736127155 L 5180.993140676832 5361.894798396702 L 5180.993140676832 5441.758050487115 L 5102.495072382836 5460.870623636957 L 5080.6521316401595 5439.710274792489 L 5080.6521316401595 5439.710274792489 Z"
                      stroke="#cccccc" stroke-width="inherit" opacity="1"
                      class="highcharts-point highcharts-null-point highcharts-color-0 highcharts-name-туркестанская highcharts-key-kz-sk"></path>
                <path fill="#f7f7f7"
                      d="M 4655 7913 L 4653 7969 L 4747 7995 L 4790 8046 L 4743 8079 L 4726 8116 L 4820 8117 L 4924 8165 L 4982 8146 L 4980 8108 L 4936 7968 L 5025 7943 L 5071 7959 L 5116 8018 L 5158 8012 L 5183 7968 L 5230 7965 L 5315 7980 L 5336 7954 L 5326 7898 L 5412 7928 L 5428 7984 L 5464 7996 L 5486 7978 L 5502 8047 L 5626 8111 L 5684 8168 L 5765 8129 L 5742 8041 L 5783 8053 L 5854 8047 L 5858 8084 L 5928 8099 L 5925 8138 L 5987 8158 L 6020 8205 L 6065 8197 L 6105 8234 L 6167 8253 L 6208 8286 L 6171 8301 L 6142 8282 L 6117 8330 L 6186 8347 L 6236 8341 L 6321 8314 L 6337 8264 L 6305 8127 L 6333 8104 L 6431 8125 L 6487 8103 L 6502 8058 L 6526 8076 L 6564 8052 L 6620 7982 L 6548 7934 L 6588 7904 L 6677 7955 L 6751 7955 L 6890 7981 L 6922 7969 L 6940 7996 L 7030 7996 L 7046 8073 L 7103 8124 L 7274 8063 L 7287 7983 L 7303 7973 L 7228 7898 L 7158 7860 L 7154 7780 L 7047 7727 L 7010 7679 L 7121 7577 L 7078 7553 L 7101 7492 L 7205 7496 L 7201 7426 L 7142 7384 L 7114 7383 L 7089 7348 L 7123 7313 L 7174 7303 L 7154 7268 L 7217 7242 L 7181 7225 L 7152 7171 L 7128 7092 L 7151 7025 L 7104 7014 L 7076 6964 L 7124 6924 L 7179 6911 L 7193 6936 L 7263 6940 L 7268 6773 L 7190 6754 L 7151 6730 L 7114 6764 L 7035 6776 L 6981 6752 L 6951 6769 L 6815 6778 L 6684 6774 L 6514 6681 L 6361 6534 L 5729 6528 L 5729 6950 L 5767 7020 L 5795 7026 L 5818 7032 L 5848 7044 L 5910 7224 L 6029 7248 L 6079 7338 L 6110 7398 L 6110 7518 L 5990 7698 L 5667 7536 L 5292 7518 L 5040 7518 L 4913 7638 L 4851 7818 L 4787 7818 L 4693 7878 L 4655 7913 Z"
                      stroke="#cccccc" stroke-width="inherit" opacity="1"
                      class="highcharts-point highcharts-null-point highcharts-color-0 highcharts-name-карагандинская highcharts-key-kz-qg"></path>
                <path fill="#f7f7f7"
                      d="M 5729 6528 L 5729 6950 L 5767 7020 L 5795 7026 L 5818 7032 L 5848 7044 L 5910 7224 L 6029 7248 L 6079 7338 L 6110 7398 L 6110 7518 L 5990 7698 L 5667 7536 L 5292 7518 L 5040 7518 L 4913 7638 L 4851 7818 L 4787 7818 L 4693 7878 L 4655 7913 L 4592 7845 L 4364 7672 L 4229 7559 L 4176 7553 L 4116 7511 L 4060 7501 L 3940 7516 L 3852 7504 L 3821 7441 L 3790 7440 L 3801 7389 L 3713 7355 L 3711 7320 L 3647 7269 L 3709 7177 L 3683 7152 L 3348 6943 L 3297 6898 L 3376 6908 L 3445 6869 L 3549 6837 L 3607 6831 L 3924 6720 L 3947 6718 L 4012 6668 L 4068 6645 L 4447 6567 L 4518 6568 L 4525 6535 L 5029 6528 L 5729 6528 Z"
                      stroke="#cccccc" stroke-width="inherit" opacity="1"
                      class="highcharts-point highcharts-null-point highcharts-color-0 highcharts-name-ұлытау highcharts-key-kz-ul"></path>
                <path fill="#f7f7f7"
                      d="M 7109 5642 L 7007 5635 L 6998 5678 L 7083 5708 L 7117 5712 L 7109 5642 L 7109 5642 Z"
                      stroke="#cccccc" stroke-width="inherit" opacity="1"
                      class="highcharts-point highcharts-null-point highcharts-color-0 highcharts-name-г.алматы highcharts-key-kz-ac"></path>
                <path fill="#f7f7f7"
                      d="M 5655 8249 L 5639 8243 L 5581 8306 L 5598 8353 L 5628 8357 L 5676 8308 L 5655 8249 L 5655 8249 Z"
                      stroke="#cccccc" stroke-width="inherit" opacity="1"
                      class="highcharts-point highcharts-null-point highcharts-color-0 highcharts-name-г.астана highcharts-key-kz-as"></path>
                <path fill="#f7f7f7"
                      d="M 5080.6521316401595 5439.710274792489 L 5049.252904322561 5387.150698630422 L 5101.8124804846275 5350.290736127155 L 5180.993140676832 5361.894798396702 L 5180.993140676832 5441.758050487115 L 5102.495072382836 5460.870623636957 L 5080.6521316401595 5439.710274792489 L 5080.6521316401595 5439.710274792489 Z"
                      stroke="#cccccc" stroke-width="inherit" opacity="1"
                      class="highcharts-point highcharts-null-point highcharts-color-0 highcharts-name-г.шымкент highcharts-key-kz-sh"></path>
                
            </g>
        </g>
        <g class="highcharts-markers highcharts-series-0 highcharts-map-series highcharts-color-0 highcharts-tracker"
           data-z-index="0.1" opacity="1" transform="translate(10,10) scale(1 1)" clip-path="none"></g>
    </g>
    <text x="10" class="highcharts-title" data-z-index="4"
          style="color: rgb(51, 51, 51); font-size: 18px; fill: rgb(51, 51, 51);" y="24"></text>
    <text x="648" text-anchor="middle" class="highcharts-subtitle" data-z-index="4"
          style="color: rgb(102, 102, 102); fill: rgb(102, 102, 102);" y="24"></text>
    <text x="10" text-anchor="start" class="highcharts-caption" data-z-index="4"
          style="color: rgb(102, 102, 102); fill: rgb(102, 102, 102);" y="717"></text>
    <g class="highcharts-map-view" data-z-index="4"></g>
    <g class="highcharts-data-labels highcharts-series-0 highcharts-map-series highcharts-color-0 highcharts-tracker"
       data-z-index="6" opacity="1" transform="translate(10,10) scale(1 1)" clip-path="url(#highcharts-msl71rq-22-)">
        <g class="highcharts-label highcharts-data-label highcharts-data-label-color-0 highcharts-tracker"
           data-z-index="1" transform="translate(483,470)"></g>
        <g class="highcharts-label highcharts-data-label highcharts-data-label-color-0 highcharts-tracker"
           data-z-index="1" transform="translate(919,536)"></g>
        <g class="highcharts-label highcharts-data-label highcharts-data-label-color-0 highcharts-tracker"
           data-z-index="1" transform="translate(753,227)"></g>
        <g class="highcharts-label highcharts-data-label highcharts-data-label-color-0 highcharts-tracker"
           data-z-index="1" transform="translate(685,570)"></g>
        <g class="highcharts-label highcharts-data-label highcharts-data-label-color-0 highcharts-tracker"
           data-z-index="1" transform="translate(470,193)"></g>
        <g class="highcharts-label highcharts-data-label highcharts-data-label-color-0 highcharts-tracker"
           data-z-index="1" transform="translate(628,105)"></g>
        <g class="highcharts-label highcharts-data-label highcharts-data-label-color-0 highcharts-tracker"
           data-z-index="1" transform="translate(881,199)"></g>
        <g class="highcharts-label highcharts-data-label highcharts-data-label-color-0 highcharts-tracker"
           data-z-index="1" transform="translate(634,203)"></g>
        <g class="highcharts-label highcharts-data-label highcharts-data-label-color-0 highcharts-tracker"
           data-z-index="1" transform="translate(756,494)"></g>
        <g class="highcharts-label highcharts-data-label highcharts-data-label-color-0 highcharts-tracker"
           data-z-index="1" transform="translate(1087,300)"></g>
        <g class="highcharts-label highcharts-data-label highcharts-data-label-color-0 highcharts-tracker"
           data-z-index="1" transform="translate(989,340)"></g>
        <g class="highcharts-label highcharts-data-label highcharts-data-label-color-0 highcharts-tracker"
           data-z-index="1" transform="translate(157,368)"></g>
        <g class="highcharts-label highcharts-data-label highcharts-data-label-color-0 highcharts-tracker"
           data-z-index="1" transform="translate(160,510)"></g>
        <g class="highcharts-label highcharts-data-label highcharts-data-label-color-0 highcharts-tracker"
           data-z-index="1" transform="translate(888,475)"></g>
        <g class="highcharts-label highcharts-data-label highcharts-data-label-color-0 highcharts-tracker"
           data-z-index="1" transform="translate(964,438)"></g>
        <g class="highcharts-label highcharts-data-label highcharts-data-label-color-0 highcharts-tracker"
           data-z-index="1" transform="translate(331,336)"></g>
        <g class="highcharts-label highcharts-data-label highcharts-data-label-color-0 highcharts-tracker"
           data-z-index="1" transform="translate(52,291)"></g>
        <g class="highcharts-label highcharts-data-label highcharts-data-label-color-0 highcharts-tracker"
           data-z-index="1" transform="translate(632,475)"></g>
        <g class="highcharts-label highcharts-data-label highcharts-data-label-color-0 highcharts-tracker"
           data-z-index="1" transform="translate(764,281)"></g>
        <g class="highcharts-label highcharts-data-label highcharts-data-label-color-0 highcharts-tracker"
           data-z-index="1" transform="translate(648,367)"></g>
    </g>
</svg>